HIERARCHY
ROOT Hips
{
	OFFSET -0.001795 -0.223333 0.028219
	CHANNELS 6 Xposition Yposition Zposition Zrotation Yrotation Xrotation 
	JOINT LeftUpLeg
	{
		OFFSET 0.069520 -0.091406 -0.006815
		CHANNELS 3 Zrotation Yrotation Xrotation
		JOINT LeftLeg
		{
			OFFSET 0.034277 -0.375199 -0.004496
			CHANNELS 3 Zrotation Yrotation Xrotation
			JOINT LeftFoot
			{
				OFFSET -0.013596 -0.397961 -0.043693
				CHANNELS 3 Zrotation Yrotation Xrotation
				JOINT LeftToe
				{
					OFFSET 0.026358 -0.055791 0.119288
					CHANNELS 3 Zrotation Yrotation Xrotation
					End Site
					{
						OFFSET 0.000000 0.000000 0.000000
					}
				}
			}
		}
	}
	JOINT RightUpLeg
	{
		OFFSET -0.067670 -0.090522 -0.004320
		CHANNELS 3 Zrotation Yrotation Xrotation
		JOINT RightLeg
		{
			OFFSET -0.038290 -0.382569 -0.008850
			CHANNELS 3 Zrotation Yrotation Xrotation
			JOINT RightFoot
			{
				OFFSET 0.015774 -0.398415 -0.042312
				CHANNELS 3 Zrotation Yrotation Xrotation
				JOINT RightToe
				{
					OFFSET -0.025372 -0.048144 0.123348
					CHANNELS 3 Zrotation Yrotation Xrotation
					End Site
					{
						OFFSET 0.000000 0.000000 0.000000
					}
				}
			}
		}
	}
	JOINT Spine
	{
		OFFSET -0.002533 0.108963 -0.026696
		CHANNELS 3 Zrotation Yrotation Xrotation
		JOINT Spine1
		{
			OFFSET 0.005487 0.135180 0.001092
			CHANNELS 3 Zrotation Yrotation Xrotation
			JOINT Spine2
			{
				OFFSET 0.001457 0.052922 0.025425
				CHANNELS 3 Zrotation Yrotation Xrotation
				JOINT Neck
				{
					OFFSET -0.002778 0.213870 -0.042857
					CHANNELS 3 Zrotation Yrotation Xrotation
					JOINT Head
					{
						OFFSET 0.005152 0.064970 0.051349
						CHANNELS 3 Zrotation Yrotation Xrotation
						End Site
						{
							OFFSET 0.000000 0.000000 0.000000
						}
					}
				}
				JOINT LeftShoulder
				{
					OFFSET 0.078845 0.121749 -0.034090
					CHANNELS 3 Zrotation Yrotation Xrotation
					JOINT LeftArm
					{
						OFFSET 0.090977 0.030469 -0.008868
						CHANNELS 3 Zrotation Yrotation Xrotation
						JOINT LeftForeArm
						{
							OFFSET 0.259612 -0.012772 -0.027456
							CHANNELS 3 Zrotation Yrotation Xrotation
							JOINT LeftHand
							{
								OFFSET 0.249234 0.008986 -0.001171
								CHANNELS 3 Zrotation Yrotation Xrotation
								End Site
								{
									OFFSET 0.000000 0.000000 0.000000
								}
							}
						}
					}
				}
				JOINT RightShoulder
				{
					OFFSET -0.081759 0.118833 -0.038615
					CHANNELS 3 Zrotation Yrotation Xrotation
					JOINT RightArm
					{
						OFFSET -0.096012 0.032551 -0.009143
						CHANNELS 3 Zrotation Yrotation Xrotation
						JOINT RightForeArm
						{
							OFFSET -0.253742 -0.013329 -0.021401
							CHANNELS 3 Zrotation Yrotation Xrotation
							JOINT RightHand
							{
								OFFSET -0.255298 0.007772 -0.005559
								CHANNELS 3 Zrotation Yrotation Xrotation
								End Site
								{
									OFFSET 0.000000 0.000000 0.000000
								}
							}
						}
					}
				}
			}
		}
	}
}
MOTION
Frames: 13
Frame Time: 0.050000
0.079277 0.933581 -0.088090 -2.585156 -40.757093 8.003823 5.010937 0.458312 -13.987837 -3.640332 2.057597 13.318618 7.095646 14.929407 1.320621 0.000000 0.000000 0.000000 -8.402713 2.272326 -18.301031 -0.067365 1.217822 12.854127 0.306650 -6.596904 8.232532 0.000000 0.000000 0.000000 6.349110 -0.656262 14.715854 0.193699 2.297408 12.735656 -6.808616 3.149705 0.503847 14.774825 -11.317862 0.065404 0.000000 0.000000 0.000000 2.814136 -42.634513 15.996812 15.348741 -48.709448 -7.132573 88.408038 -0.228639 2.618772 0.000000 0.000000 0.000000 -7.878297 40.595874 11.570777 -16.005598 50.612784 -11.791204 -68.573050 -3.296798 1.935370 0.000000 0.000000 0.000000 
0.077846 0.933110 -0.089772 -2.892678 -41.359777 7.685906 5.560727 0.543246 -12.895535 -3.867364 2.078955 12.703528 7.356020 15.446995 1.605730 0.000000 0.000000 0.000000 -8.025198 2.261969 -18.172230 0.348452 1.281249 13.589944 0.529188 -6.043898 8.031123 0.000000 0.000000 0.000000 6.408200 -0.637777 14.835723 0.539088 2.273974 13.328698 -7.092309 2.538085 0.022196 14.574457 -11.240249 0.842103 0.000000 0.000000 0.000000 0.797914 -42.428514 16.874465 12.858557 -47.882410 -6.141620 89.589843 -2.083724 1.047319 0.000000 0.000000 0.000000 -5.982287 41.038552 12.036321 -15.088884 52.411518 -11.913265 -71.384489 -0.758023 0.220975 0.000000 0.000000 0.000000 
0.076128 0.932837 -0.091097 -3.039500 -41.746417 7.323292 5.924325 0.603638 -12.274918 -4.080041 2.178085 12.735036 7.292300 15.246156 1.869394 0.000000 0.000000 0.000000 -7.828034 2.261988 -18.169805 0.761017 1.392606 14.659459 0.496769 -5.532916 7.320893 0.000000 0.000000 0.000000 6.265855 -0.613153 14.549983 0.870443 2.276693 14.076175 -7.240279 2.149340 -0.231637 14.548156 -11.342860 1.751083 0.000000 0.000000 0.000000 -1.260562 -42.692571 17.956583 11.181352 -46.726571 -5.464257 90.094728 -3.402349 -0.188144 0.000000 0.000000 0.000000 -3.486659 41.097487 12.525648 -12.796903 54.167006 -11.227919 -75.527010 3.091144 -2.730656 0.000000 0.000000 0.000000 
0.074325 0.932257 -0.091937 -3.313425 -41.819241 6.895014 6.272863 0.624990 -11.073066 -4.150711 2.134938 12.213347 7.349735 15.356348 2.116909 0.000000 0.000000 0.000000 -7.419232 2.240091 -18.058343 0.810669 1.547989 15.647486 0.616869 -5.241497 7.244957 0.000000 0.000000 0.000000 6.025129 -0.583673 14.348250 1.617361 2.095536 15.164804 -7.706201 1.882916 -1.010295 14.600127 -11.591275 3.169275 0.000000 0.000000 0.000000 -2.767360 -42.772800 18.647956 8.914288 -45.736502 -4.654358 91.284844 -5.303404 -2.041102 0.000000 0.000000 0.000000 -0.699595 41.500061 13.252696 -10.303541 55.428412 -10.073118 -78.987918 6.591722 -5.687368 0.000000 0.000000 0.000000 
0.072788 0.931698 -0.092331 -3.401733 -41.571610 6.532616 6.476963 0.632044 -10.443974 -4.089477 2.099367 12.178528 7.116761 14.880122 2.175061 0.000000 0.000000 0.000000 -7.196715 2.211905 -17.949288 1.055237 1.655677 16.557183 0.290706 -5.337361 6.618732 0.000000 0.000000 0.000000 5.860169 -0.579316 13.777683 2.215105 1.888109 15.931263 -8.114267 1.932152 -1.204035 14.925923 -12.019637 3.924685 0.000000 0.000000 0.000000 -4.437914 -43.276823 19.570307 7.490030 -44.575497 -4.160545 92.743016 -7.187304 -4.072114 0.000000 0.000000 0.000000 1.801507 42.035675 14.041286 -7.382156 56.091556 -8.503058 -82.394700 10.358631 -9.191020 0.000000 0.000000 0.000000 
0.071692 0.931271 -0.092577 -3.225795 -41.287420 5.907166 6.621573 0.618817 -9.548512 -4.200841 2.072261 11.821628 7.102338 14.891917 2.234096 0.000000 0.000000 0.000000 -6.965640 2.176164 -17.800255 0.912972 1.829471 17.465550 0.382600 -4.783375 6.199346 0.000000 0.000000 0.000000 5.670625 -0.559593 13.662289 2.743321 1.609107 16.257862 -8.741521 2.505887 -1.224356 15.708972 -12.893334 4.585538 0.000000 0.000000 0.000000 -5.103887 -43.882056 19.969036 5.939832 -43.767018 -3.673411 93.956748 -9.040798 -6.201701 0.000000 0.000000 0.000000 3.713636 42.082024 14.627358 -5.418469 56.599335 -7.346744 -84.316401 13.357921 -11.943355 0.000000 0.000000 0.000000 
0.071281 0.930785 -0.092792 -3.079037 -40.656471 5.470411 6.685620 0.602040 -9.224860 -4.070899 2.025964 11.994984 6.491965 13.673746 2.060709 0.000000 0.000000 0.000000 -6.904630 2.124128 -17.570085 0.839288 1.946432 18.154826 0.102251 -5.065736 5.904727 0.000000 0.000000 0.000000 5.642649 -0.568840 13.345104 2.980221 1.513101 16.780794 -8.882084 3.087801 -1.316763 16.626997 -13.780132 4.737119 0.000000 0.000000 0.000000 -5.882749 -44.566214 20.470572 5.412579 -43.330235 -3.541816 94.281108 -10.912656 -8.356406 0.000000 0.000000 0.000000 5.885352 42.383237 15.459928 -4.326741 55.968814 -6.405481 -85.905740 14.863394 -13.370747 0.000000 0.000000 0.000000 
0.071440 0.930769 -0.093165 -2.957423 -40.386363 4.952609 6.546984 0.554319 -8.763210 -4.044886 1.974443 11.792507 6.378541 13.384931 2.319827 0.000000 0.000000 0.000000 -7.029611 2.103926 -17.509613 0.760086 2.114591 19.043251 0.322082 -4.683134 5.998367 0.000000 0.000000 0.000000 5.700593 -0.574602 13.118639 3.305881 1.370663 17.209162 -9.606486 4.039449 -1.058204 17.380215 -14.600119 4.731540 0.000000 0.000000 0.000000 -5.618079 -45.424760 20.478764 4.807685 -43.225263 -3.402160 94.407550 -13.014764 -10.779670 0.000000 0.000000 0.000000 8.007766 42.442447 16.276589 -4.747752 55.202669 -6.217786 -85.713213 14.806681 -12.896584 0.000000 0.000000 0.000000 
0.072123 0.930707 -0.093523 -2.681180 -40.015847 4.715276 6.318692 0.492646 -8.612283 -3.970176 1.900240 11.567886 6.111095 12.892361 2.146577 0.000000 0.000000 0.000000 -7.172010 2.104060 -17.582097 0.799995 2.191550 19.575003 0.102385 -5.082505 5.968140 0.000000 0.000000 0.000000 5.856253 -0.596155 12.878605 3.197815 1.429646 17.359672 -9.612534 4.696941 -0.886180 17.822694 -14.965452 4.297243 0.000000 0.000000 0.000000 -5.449457 -46.065915 20.554558 4.524819 -43.399060 -3.367110 93.586453 -14.032936 -11.809066 0.000000 0.000000 0.000000 8.762154 42.135763 16.499845 -5.735949 54.461151 -6.450947 -83.783686 12.759857 -10.459322 0.000000 0.000000 0.000000 
0.072958 0.930803 -0.093876 -2.290612 -39.756893 4.522429 5.895700 0.406098 -8.691399 -4.004755 1.889072 11.492084 6.129819 12.980616 2.013534 0.000000 0.000000 0.000000 -7.381166 2.178022 -18.161591 0.801847 2.376673 20.599873 0.160842 -4.841478 5.829643 0.000000 0.000000 0.000000 5.994122 -0.617528 11.928270 3.522521 1.279944 17.657269 -9.927148 5.219075 -0.663293 18.204198 -15.245471 3.775650 0.000000 0.000000 0.000000 -5.792459 -46.964283 21.016454 4.444123 -43.382573 -3.385985 91.569920 -14.695517 -12.224469 0.000000 0.000000 0.000000 9.755568 42.421973 17.068666 -7.460391 53.003517 -6.885574 -80.344975 9.517804 -6.984745 0.000000 0.000000 0.000000 
0.073596 0.930819 -0.094111 -1.970410 -38.954080 3.999342 5.565899 0.322466 -8.431262 -3.960665 1.806930 11.259161 6.014640 12.779781 1.946591 0.000000 0.000000 0.000000 -7.724370 2.109042 -17.854086 1.096103 2.382495 21.130196 -0.073574 -5.326435 5.894892 0.000000 0.000000 0.000000 6.415702 -0.655240 11.574753 3.790628 0.973752 17.415364 -9.951826 5.207557 -0.498778 18.002276 -15.108578 3.719685 0.000000 0.000000 0.000000 -5.766456 -47.729006 21.324604 5.170255 -43.975449 -3.673598 86.831392 -14.991632 -11.652030 0.000000 0.000000 0.000000 9.868958 42.049415 16.933089 -8.953730 52.181993 -7.369646 -76.342527 5.724612 -3.584402 0.000000 0.000000 0.000000 
0.073686 0.930772 -0.094249 -1.786050 -38.295800 3.737263 5.389527 0.272441 -8.432213 -3.945309 1.791435 11.418185 5.952300 12.728533 1.687688 0.000000 0.000000 0.000000 -8.081947 2.076027 -17.774805 1.362216 2.398828 21.693497 -0.071687 -5.201949 5.794250 0.000000 0.000000 0.000000 6.848926 -0.684586 10.842942 4.113382 0.786665 17.815485 -10.318885 4.836690 -0.606265 17.642807 -14.785207 3.609448 0.000000 0.000000 0.000000 -5.946093 -48.687164 21.867846 6.808005 -44.239053 -4.212606 82.621049 -15.740828 -11.563462 0.000000 0.000000 0.000000 10.172783 41.734594 16.891681 -10.310587 50.630285 -7.620117 -73.465887 2.110797 -0.768431 0.000000 0.000000 0.000000 
0.073215 0.930509 -0.094246 -1.487314 -37.917744 3.204561 5.150685 0.223402 -8.024134 -4.050827 1.805889 11.376451 5.945747 12.746551 1.678726 0.000000 0.000000 0.000000 -8.161972 2.051782 -17.716252 1.422462 2.462683 22.184796 -0.292669 -5.747346 5.938624 0.000000 0.000000 0.000000 7.075084 -0.687216 10.498628 4.344183 0.471605 17.165468 -10.141735 4.583108 -0.084709 17.315365 -14.473825 3.409539 0.000000 0.000000 0.000000 -4.946107 -48.977096 21.571120 8.398420 -45.003724 -4.774345 78.321385 -15.409348 -10.486506 0.000000 0.000000 0.000000 9.725246 41.045148 16.289973 -10.747240 49.103526 -7.545890 -71.161160 0.850265 0.053625 0.000000 0.000000 0.000000 
